<?xml version="1.0" encoding="utf-8"?>
<!-- Generator: Adobe Illustrator 24.1.1, SVG Export Plug-In . SVG Version: 6.00 Build 0)  -->
<svg version="1.1" id="Layer_1" xmlns="http://www.w3.org/2000/svg" xmlns:xlink="http://www.w3.org/1999/xlink" x="0px" y="0px"
	 viewBox="0 0 500 500" style="enable-background:new 0 0 500 500;" xml:space="preserve">
<style type="text/css">
	.st0{fill:#330000;}
	.st1{fill:#FF9A00;}
</style>
<g id="Illustrator" transform="translate(2303 308)">
	<path id="Прямоугольник_16" class="st0" d="M-2224.9-308h343.8c43.1,0,78.1,35,78.1,78.1v343.8
		c0,43.1-35,78.1-78.1,78.1h-343.8c-43.1,0-78.1-35-78.1-78.1v-343.8C-2303-273-2268-308-2224.9-308z"/>
	<path id="Контур_30" class="st1" d="M-2059.2-3.6h-76.3l-15.6,51c-0.4,1.8-2.1,3.1-4,3h-38.7c-2.2,0-3-1.2-2.3-3.6
		l65.9-190.3c0.7-2,1.3-4.2,2-6.8c0.9-3.7,1.4-7.5,1.3-11.3c-0.2-1.1,0.6-2.2,1.7-2.3c0.2,0,0.4,0,0.6,0h52.5c1.5,0,2.4,0.6,2.6,1.7
		l75.2,209.3c0.7,2.2,0,3.3-2,3.3h-42.9c-1.5,0.2-2.9-0.8-3.3-2.3L-2059.2-3.6z M-2124.1-38.8h55.9c-1.3-4.4-5.9-14.6-7.6-20.1
		s-4.2-9.9-6.2-16.2c-2-6.3-4-12.6-5.9-18.8c-2-6.3-3.8-12.3-5.5-18.2c-1.7-5.8-3.1-11.2-4.5-16h-0.3c-1.9,8.9-4.2,17.7-6.9,26.4
		c-3.1,9.9-6.2,20-9.4,30.4C-2117.7-60.9-2121-47.6-2124.1-38.8L-2124.1-38.8z"/>
	<path id="Контур_31" class="st1" d="M-1949.5-129.5c-6.8,0.3-13.4-2.4-18.2-7.3c-4.7-5.1-7.2-11.9-6.9-18.8
		c-0.2-6.9,2.5-13.6,7.4-18.3c4.9-4.7,11.5-7.3,18.3-7.1c6.9-0.4,13.7,2.2,18.7,7.1c4.6,5,7,11.6,6.8,18.3c0.3,7-2.3,13.8-7.1,18.8
		C-1935.6-131.8-1942.5-129.2-1949.5-129.5z M-1970.9,47v-151c0-2,0.9-3,2.6-3h37.5c1.8,0,2.6,1,2.6,3V47c0,2.2-0.9,3.3-2.6,3.3
		h-37.2C-1969.9,50.3-1970.9,49.2-1970.9,47z"/>
</g>
</svg>
