<?xml version="1.0" encoding="utf-8"?>
<!-- Generator: Adobe Illustrator 24.1.1, SVG Export Plug-In . SVG Version: 6.00 Build 0)  -->
<svg version="1.1" id="Layer_1" xmlns="http://www.w3.org/2000/svg" xmlns:xlink="http://www.w3.org/1999/xlink" x="0px" y="0px"
	 viewBox="0 0 500 500" style="enable-background:new 0 0 500 500;" xml:space="preserve">
<style type="text/css">
	.st0{fill:#26C9FF;}
	.st1{fill:#061E26;}
	.st2{fill-rule:evenodd;clip-rule:evenodd;fill:#D9F5FF;}
</style>
<g id="g8" transform="matrix(2.0666667 0 0 2.0666667 2 2)">
	<path id="path2" class="st0" d="M198.1,237.9H41.9C18.2,237.9-1,218.8-1,195.1V44.9C-1,21.2,18.2,2.1,41.9,2.1h156.2
		c23.7,0,42.8,19.2,42.8,42.8v150.2C241,218.8,221.8,237.9,198.1,237.9z"/>
	<path id="path4" class="st1" d="M194.3,227.9H45.7c-20.2,0-36.6-16.4-36.6-36.6V48.7c0-20.2,16.4-36.6,36.6-36.6h148.5
		c20.3,0,36.6,16.4,36.6,36.6v142.4C230.9,211.4,214.5,227.9,194.3,227.9L194.3,227.9z"/>
	<path id="path6" class="st2" d="M58.5,61.1c0-0.6,0.2-1.1,1-1.1c6.4-0.3,15.4-0.5,25.2-0.5c27.2,0,39.1,14.9,39.1,34.1
		c0,25-18.3,35.7-40.5,35.7c-3.7,0-5-0.2-7.7-0.2v38.3c0,0.8-0.3,1.1-1.1,1.1H59.6c-0.8,0-1.1-0.3-1.1-1.1L58.5,61.1z M75.6,113.3
		c2.2,0.2,4,0.2,8,0.2c11.5,0,22.5-4,22.5-19.7C106.1,81.4,98.2,75,85,75c-3.9,0-7.7,0.2-9.4,0.3L75.6,113.3z M163.5,101.7
		c-7.8,0-10.4,3.9-10.4,7.2c0,3.5,1.8,6,12.2,11.4c15.4,7.5,20.3,14.6,20.3,25.2c0,15.7-12,24.2-28.2,24.2c-8.6,0-16.2-1.8-20.5-4.2
		c-0.6-0.3-0.8-0.8-0.8-1.6v-14.5c0-1,0.5-1.3,1.1-0.8c6.1,4,13.7,5.8,20.2,5.8c7.8,0,11-3.2,11-7.7c0-3.5-2.2-6.7-12.2-11.9
		c-14-6.7-19.8-13.5-19.8-24.8c0-12.7,9.9-23.2,27.1-23.2c8.5,0,14.7,1.3,17.9,2.7c0.8,0.5,1,1.3,1,1.9v13.5c0,0.8-0.5,1.3-1.4,1
		C176.7,103.3,169.9,101.7,163.5,101.7z"/>
</g>
</svg>
